<svg xmlns="http://www.w3.org/2000/svg" viewBox="0 0 713.59 300">
    <path d="M195.33,192.41l-53.48,107.59-53.48-107.59v-69.05l27.05,57.35h0l26.43,55.88,26.43-55.88h0l27.05-57.35h0v69.05ZM96.73,90.15l27.05,57.35V63.09H59.75l-17.03-36.04h198.05l-17.03,36.04h-63.93v84.4l27.05-57.35h54.11L283.6,0H0l42.62,90.15h54.11Z"/>
    <path d="M296.25,208.51c-10.17,0-19.43-2.64-27.76-7.91-8.34-5.27-14.98-12.29-19.95-21.05-4.96-8.76-7.45-18.48-7.45-29.14s2.48-20.41,7.45-29.23c4.96-8.82,11.61-15.84,19.95-21.05,8.33-5.21,17.59-7.81,27.76-7.81,7.11,0,13.61,1.26,19.49,3.77,5.88,2.51,10.91,5.98,15.08,10.39v-11.21h27.58v110.31h-27.58v-11.21c-4.17,4.41-9.19,7.88-15.08,10.39s-12.38,3.77-19.49,3.77ZM300.11,180.38c5.39,0,10.3-1.35,14.71-4.04,4.41-2.69,7.93-6.31,10.57-10.85,2.63-4.53,3.95-9.56,3.95-15.08s-1.32-10.54-3.95-15.07c-2.64-4.53-6.16-8.15-10.57-10.85-4.41-2.69-9.32-4.04-14.71-4.04s-10.3,1.35-14.71,4.04c-4.41,2.7-7.94,6.31-10.57,10.85-2.64,4.54-3.95,9.56-3.95,15.07s1.32,10.54,3.95,15.08c2.63,4.54,6.16,8.15,10.57,10.85,4.41,2.7,9.31,4.04,14.71,4.04Z"/>
    <path d="M382.66,205.57v-110.31h28.68v18.94c3.8-6.37,8.61-11.31,14.43-14.8,5.82-3.49,12.65-5.24,20.5-5.24l6.99,28.31c-2.33-.74-4.96-1.1-7.91-1.1-9.19,0-16.61,2.97-22.25,8.92-5.64,5.95-8.46,14.43-8.46,25.46v49.82h-31.99Z"/>
    <path d="M516.69,211.09l-60.49-115.83h35.48l17.28,35.48c1.59,3.07,3.06,6.1,4.41,9.1,1.35,3,2.69,6.41,4.04,10.2,1.35-3.8,2.69-7.2,4.04-10.2,1.35-3,2.82-6.04,4.41-9.1l17.28-35.48h34.01l-60.49,115.83Z"/>
    <path d="M606.77,79.26c-4.78,0-8.83-1.65-12.13-4.96-3.31-3.31-4.96-7.35-4.96-12.13s1.66-8.98,4.96-12.23c3.31-3.25,7.35-4.87,12.13-4.87s8.98,1.63,12.23,4.87c3.25,3.25,4.87,7.33,4.87,12.23s-1.63,8.83-4.87,12.13c-3.25,3.31-7.33,4.96-12.23,4.96ZM590.78,205.57v-110.31h31.99v110.31h-31.99Z"/>
    <path d="M660.27,205.57v-84.94h-20.59v-25.37h21.14v-36.77h30.89v36.77h21.88v25.37h-21.33v84.94h-31.99Z"/>
</svg>