<?xml version="1.0" standalone="no"?>
<!DOCTYPE svg PUBLIC "-//W3C//DTD SVG 20010904//EN"
 "http://www.w3.org/TR/2001/REC-SVG-20010904/DTD/svg10.dtd">
<svg version="1.0" xmlns="http://www.w3.org/2000/svg"
 width="700.000000pt" height="700.000000pt" viewBox="0 0 700.000000 700.000000"
 preserveAspectRatio="xMidYMid meet">
<metadata>
Created by potrace 1.14, written by Peter Selinger 2001-2017
</metadata>
<g transform="translate(0.000000,700.000000) scale(0.100000,-0.100000)"
fill="#000000" stroke="none">
<path d="M204 6973 c7 -16 29 -62 49 -103 35 -76 338 -718 429 -910 28 -58 64
-134 80 -170 17 -36 59 -123 93 -195 34 -71 121 -257 194 -412 84 -178 139
-283 150 -285 9 -2 294 -3 633 -3 l617 1 40 -85 c50 -107 134 -286 217 -460
35 -73 64 -135 64 -137 0 -1 34 -73 74 -158 41 -86 94 -198 118 -248 24 -51
60 -127 80 -168 l37 -75 0 983 1 982 -746 0 c-410 -1 -747 0 -749 2 -3 3 -74
152 -124 260 -16 35 -63 134 -105 222 -42 87 -76 160 -76 162 0 2 -20 45 -45
95 -25 51 -45 93 -45 95 0 2 1040 4 2310 4 1271 0 2310 -2 2310 -4 0 -2 -11
-26 -24 -53 -24 -48 -97 -202 -143 -302 -14 -30 -60 -127 -102 -215 -43 -89
-88 -185 -101 -213 l-24 -53 -55 0 c-31 0 -368 0 -748 -1 l-693 0 0 -981 c0
-540 2 -979 4 -977 4 4 123 253 216 454 15 33 52 112 83 175 87 185 132 278
187 395 28 61 72 153 97 206 l45 95 631 0 630 -1 72 150 c40 83 84 175 98 205
14 30 69 147 122 260 54 113 114 241 135 285 21 44 59 125 85 180 71 149 213
450 252 535 20 41 61 129 93 195 32 66 72 152 90 190 18 39 36 78 42 88 8 16
-152 17 -3302 17 l-3311 0 15 -27z"/>
<path d="M2251 3313 l-1 -802 622 -1250 c342 -688 625 -1251 628 -1251 3 0
285 561 625 1246 l620 1246 0 804 c0 442 -1 804 -2 804 -3 0 -43 -83 -118
-245 -18 -38 -61 -128 -95 -200 -34 -71 -73 -155 -87 -185 -14 -30 -59 -124
-99 -208 -41 -85 -74 -155 -74 -157 0 -1 -28 -61 -61 -131 -90 -190 -138 -290
-224 -474 -42 -91 -108 -230 -146 -309 -38 -79 -69 -145 -69 -146 0 -2 -31
-68 -69 -147 -37 -78 -84 -177 -103 -218 -20 -41 -50 -106 -68 -144 l-32 -68
-28 58 c-14 33 -43 93 -62 134 -20 41 -49 104 -66 140 -16 36 -62 132 -101
214 -39 81 -71 149 -71 151 0 1 -31 67 -69 146 -38 79 -106 223 -151 319 -164
349 -210 446 -288 610 -123 261 -146 309 -172 365 -33 72 -146 308 -200 420
l-39 80 0 -802z"/>
</g>
</svg>
